<?xml version="1.0" encoding="utf-8"?>
<!-- Generator: Adobe Illustrator 17.1.0, SVG Export Plug-In . SVG Version: 6.00 Build 0)  -->
<!DOCTYPE svg PUBLIC "-//W3C//DTD SVG 1.1//EN" "http://www.w3.org/Graphics/SVG/1.1/DTD/svg11.dtd">
<svg version="1.1" id="svg2" xmlns="http://www.w3.org/2000/svg" xmlns:xlink="http://www.w3.org/1999/xlink" x="0px" y="0px"
	 width="32px" height="32px" viewBox="484 484 32 32" enable-background="new 484 484 32 32" xml:space="preserve">
<path d="M514.3,484h-28.5c-1,0-1.7,0.8-1.7,1.7v28.5c0,1,0.8,1.7,1.7,1.7h15.4v-12.4h-4.2v-4.8h4.2v-3.7c0-3.9,2.4-6.3,6.2-6.3
	c2.3,0,3.8,0.2,3.8,0.2v4.3h-2.6c-1.6,0-2.4,0.6-2.4,2.3v3.1h4.8l-0.6,4.8h-4.2V516h8.2c1,0,1.7-0.8,1.7-1.7v-28.5
	C516,484.8,515.2,484,514.3,484z"/>
</svg>
