<?xml version="1.0" encoding="utf-8"?>
<!-- Generator: Adobe Illustrator 17.1.0, SVG Export Plug-In . SVG Version: 6.00 Build 0)  -->
<!DOCTYPE svg PUBLIC "-//W3C//DTD SVG 1.1//EN" "http://www.w3.org/Graphics/SVG/1.1/DTD/svg11.dtd">
<svg version="1.1" id="Layer_1" xmlns="http://www.w3.org/2000/svg" xmlns:xlink="http://www.w3.org/1999/xlink" x="0px" y="0px"
	 width="32px" height="32px" viewBox="0 0 32 32" enable-background="new 0 0 32 32" xml:space="preserve">
<g>
	<defs>
		<rect id="SVGID_1_" width="32" height="32"/>
	</defs>
	<clipPath id="SVGID_2_">
		<use xlink:href="#SVGID_1_"  overflow="visible"/>
	</clipPath>
	<path clip-path="url(#SVGID_2_)" fill-rule="evenodd" clip-rule="evenodd" fill="#231F20" d="M28.3,13.5h-2.8
		c0.2,0.8,0.3,1.6,0.3,2.5c0,5.4-4.4,9.8-9.8,9.8c-5.4,0-9.8-4.4-9.8-9.8c0-0.8,0.1-1.7,0.3-2.5H3.7V27c0,0.7,0.6,1.2,1.2,1.2H27
		c0.7,0,1.2-0.6,1.2-1.2V13.5z M28.3,4.9c0-0.7-0.6-1.2-1.2-1.2h-3.7c-0.7,0-1.2,0.6-1.2,1.2v3.7c0,0.7,0.5,1.2,1.2,1.2H27
		c0.7,0,1.2-0.6,1.2-1.2V4.9z M16,9.8c-3.4,0-6.1,2.7-6.1,6.1c0,3.4,2.8,6.1,6.1,6.1s6.1-2.8,6.1-6.1C22.1,12.6,19.4,9.8,16,9.8
		 M28.3,31.9H3.7c-2,0-3.7-1.7-3.7-3.7V3.7C0,1.6,1.7,0,3.7,0h24.6c2,0,3.7,1.6,3.7,3.7v24.6C31.9,30.3,30.3,31.9,28.3,31.9"/>
</g>
</svg>
