<?xml version="1.0" encoding="utf-8"?>
<!-- Generator: Adobe Illustrator 17.1.0, SVG Export Plug-In . SVG Version: 6.00 Build 0)  -->
<!DOCTYPE svg PUBLIC "-//W3C//DTD SVG 1.1//EN" "http://www.w3.org/Graphics/SVG/1.1/DTD/svg11.dtd">
<svg version="1.1" id="Layer_1" xmlns="http://www.w3.org/2000/svg" xmlns:xlink="http://www.w3.org/1999/xlink" x="0px" y="0px"
	 width="32px" height="25.6px" viewBox="-3.2 -2.6 32 25.6" enable-background="new -3.2 -2.6 32 25.6" xml:space="preserve">
<path d="M28.8,0.4c-1.2,0.5-2.4,0.9-3.8,1c1.4-0.8,2.4-2.1,2.9-3.6c-1.3,0.7-2.7,1.3-4.1,1.6c-1.2-1.2-2.9-2-4.8-2
	c-3.6,0-6.6,2.9-6.6,6.5c0,0.5,0,1,0.1,1.5C7.1,5.1,2.2,2.6-1-1.3c-0.6,0.9-0.9,1.9-0.9,3.1c0,2.2,1.1,4.2,2.9,5.4
	c-1.1,0-2.1-0.3-3-0.8c0,0,0,0,0,0.1c0,3.1,2.3,5.8,5.3,6.3c-0.6,0.1-1.1,0.2-1.7,0.2c-0.4,0-0.8,0-1.2-0.1c0.8,2.6,3.3,4.4,6.1,4.5
	c-2.2,1.7-5.1,3.1-8.1,3.1c-0.5,0-1,0-1.6-0.1C-0.3,22.2,3.1,23,6.8,23c12.1,0,18.7-9.8,18.7-18.4c0-0.3,0-0.5,0-0.8
	C26.8,2.9,27.9,1.8,28.8,0.4z"/>
</svg>
